HIERARCHY
ROOT Hips
{
	OFFSET 52.589001 -7.574514 85.789299
	CHANNELS 6 Xposition Yposition Zposition Xrotation Yrotation Zrotation
	JOINT spine
	{
		OFFSET 0.000000 -0.367607 6.392601
		CHANNELS 3 Xrotation Yrotation Zrotation
		JOINT spine1
		{
			OFFSET 0.000000 -0.000002 9.176109
			CHANNELS 3 Xrotation Yrotation Zrotation
			JOINT spine2
			{
				OFFSET 0.000000 -0.000001 8.792381
				CHANNELS 3 Xrotation Yrotation Zrotation
				JOINT Neck
				{
					OFFSET 0.000000 -1.076243 22.573700
					CHANNELS 3 Xrotation Yrotation Zrotation
					JOINT Head
					{
						OFFSET 0.000000 -0.000001 6.820114
						CHANNELS 3 Xrotation Yrotation Zrotation
						End Site
						{
							OFFSET 0.000000 5.444267 16.508499
						}
					}
				}
				JOINT RightShoulder
				{
					OFFSET -3.702209 0.515507 9.495087
					CHANNELS 3 Xrotation Yrotation Zrotation
					JOINT RightArm
					{
						OFFSET 0.000000 -0.000002 12.453705
						CHANNELS 3 Xrotation Yrotation Zrotation
						JOINT RightArmRoll
						{
							OFFSET 0.000000 -0.000001 6.286850
							CHANNELS 3 Xrotation Yrotation Zrotation
							JOINT RightForeArm
							{
								OFFSET 0.000000 -0.000003 18.311401
								CHANNELS 3 Xrotation Yrotation Zrotation
								JOINT RightForeArmRoll
								{
									OFFSET 0.000000 -0.000001 7.054825
									CHANNELS 3 Xrotation Yrotation Zrotation
									JOINT RightHand
									{
										OFFSET 0.000000 -0.000002 14.157501
										CHANNELS 3 Xrotation Yrotation Zrotation
										End Site
										{
											OFFSET 0.000000 0.000000 0.100006
										}
									}
								}
							}
						}
					}
				}
				JOINT LeftShoulder
				{
					OFFSET 3.702209 0.515507 9.495087
					CHANNELS 3 Xrotation Yrotation Zrotation
					JOINT LeftArm
					{
						OFFSET 0.000000 -0.000002 12.453705
						CHANNELS 3 Xrotation Yrotation Zrotation
						JOINT LeftArmRoll
						{
							OFFSET 0.000000 -0.000001 6.286850
							CHANNELS 3 Xrotation Yrotation Zrotation
							JOINT LeftForeArm
							{
								OFFSET 0.000000 -0.000003 18.311401
								CHANNELS 3 Xrotation Yrotation Zrotation
								JOINT LeftForeArmRoll
								{
									OFFSET 0.000000 -0.000001 7.054825
									CHANNELS 3 Xrotation Yrotation Zrotation
									JOINT LeftHand
									{
										OFFSET 0.000000 -0.000002 14.157501
										CHANNELS 3 Xrotation Yrotation Zrotation
										End Site
										{
											OFFSET 0.000000 0.000000 0.100006
										}
									}
								}
							}
						}
					}
				}
			}
		}
	}
	JOINT RightUpLeg
	{
		OFFSET -5.666161 0.871610 -1.039032
		CHANNELS 3 Xrotation Yrotation Zrotation
		JOINT RightUpLegRoll
		{
			OFFSET 0.000000 -0.000003 16.600502
			CHANNELS 3 Xrotation Yrotation Zrotation
			JOINT RightLeg
			{
				OFFSET 0.000000 0.000003 -20.557198
				CHANNELS 3 Xrotation Yrotation Zrotation
				JOINT RightLegRoll
				{
					OFFSET 0.000000 -0.000003 20.624397
					CHANNELS 3 Xrotation Yrotation Zrotation
					JOINT RightFoot
					{
						OFFSET 0.000000 -0.000003 17.166397
						CHANNELS 3 Xrotation Yrotation Zrotation
						JOINT RightToeBase
						{
							OFFSET 0.000000 -0.000002 14.350204
							CHANNELS 3 Xrotation Yrotation Zrotation
							End Site
							{
								OFFSET 0.006081 0.801060 6.949707
							}
						}
					}
				}
			}
		}
	}
	JOINT LeftUpLeg
	{
		OFFSET 5.666161 0.871610 -1.039032
		CHANNELS 3 Xrotation Yrotation Zrotation
		JOINT LeftUpLegRoll
		{
			OFFSET 0.000000 -0.000003 16.600601
			CHANNELS 3 Xrotation Yrotation Zrotation
			JOINT LeftLeg
			{
				OFFSET 0.000000 -0.000003 20.557098
				CHANNELS 3 Xrotation Yrotation Zrotation
				JOINT LeftLegRoll
				{
					OFFSET 0.000000 -0.000003 20.815102
					CHANNELS 3 Xrotation Yrotation Zrotation
					JOINT LeftFoot
					{
						OFFSET 0.000000 -0.000003 16.975693
						CHANNELS 3 Xrotation Yrotation Zrotation
						JOINT LeftToeBase
						{
							OFFSET 0.000000 -0.000002 14.350204
							CHANNELS 3 Xrotation Yrotation Zrotation
							End Site
							{
								OFFSET -0.027260 0.801060 6.949707
							}
						}
					}
				}
			}
		}
	}
}
MOTION
Frames: 6
Frame Time: 0.041667
52.243595 -8.087893 85.595207 0.675443 -0.223018 0.324227 -2.030423 0.086879 -0.061310 -0.057923 0.189049 -0.127139 1.587159 0.187458 -0.129292 7.117456 1.915029 0.763054 7.583802 -1.042919 0.644020 -16.153452 -28.286547 -18.425170 61.560550 -49.870811 95.125199 0.000000 -0.000002 0.000000 1.205176 3.999863 -0.490614 -0.000002 -0.000001 -3.002151 -5.000146 -7.999960 -0.000002 -20.604365 29.863643 24.865075 61.173899 51.860277 -91.229170 0.000001 0.000002 0.000004 3.128006 -7.388192 0.654594 0.000000 -0.000002 3.000011 -5.000130 8.000239 0.000024 -1.213775 -174.052331 1.262200 -179.999991 0.000005 -1.074001 174.765772 -3.204607 -0.515421 0.000003 -0.000001 0.042674 68.978770 6.853999 2.228794 25.456957 -7.355617 0.000010 -1.078300 174.977890 0.687669 -0.000005 -0.000005 -1.085330 -6.391899 1.298520 0.512290 -0.000005 0.000000 -0.119561 70.426989 -6.879140 -2.063052 25.475139 7.355620 -0.026898 
52.258896 -8.093495 85.604607 0.688360 -0.224961 0.325763 -2.032775 0.087036 -0.061683 -0.062619 0.189837 -0.128104 1.582459 0.188230 -0.130259 7.110806 1.877290 0.762316 7.582844 -0.978390 0.638779 -16.154024 -28.282857 -18.425936 61.567318 -49.872054 95.133218 0.000000 -0.000003 -0.000000 1.213699 4.000916 -0.490580 -0.000002 0.000000 -3.002150 -5.000146 -7.999960 -0.000005 -20.614633 29.865559 24.879814 61.171427 51.859082 -91.214280 -0.000001 0.000001 0.000001 3.146862 -7.375348 0.654528 -0.000000 -0.000002 3.000010 -5.000128 8.000242 0.000029 -1.241274 -174.047386 1.256872 -179.999991 0.000006 -1.074001 174.744680 -3.198527 -0.517049 0.000002 -0.000000 0.042355 68.982192 6.850780 2.237284 25.456959 -7.355617 0.000010 -1.105923 174.979925 0.680902 -0.000005 -0.000004 -1.084790 -6.432322 1.315430 0.513108 -0.000004 -0.000000 -0.120612 70.448729 -6.878688 -2.062731 25.476355 7.355620 -0.028635 
52.254196 -8.123856 85.606110 0.698823 -0.225918 0.327563 -2.034672 0.087121 -0.062025 -0.066411 0.190364 -0.128895 1.578669 0.188745 -0.131053 7.105217 1.848485 0.761336 7.583076 -0.930410 0.634553 -16.155660 -28.280117 -18.428170 61.573124 -49.871767 95.140048 0.000001 -0.000000 -0.000001 1.220114 4.001887 -0.490550 -0.000002 0.000000 -3.002151 -5.000145 -7.999961 -0.000006 -20.622733 29.866662 24.891513 61.169958 51.856989 -91.202280 0.000001 0.000000 0.000004 3.160149 -7.364769 0.654476 -0.000000 -0.000001 3.000014 -5.000129 8.000239 0.000029 -1.262724 -174.044435 1.252212 -179.999991 0.000005 -1.073004 174.728602 -3.192472 -0.518394 0.000002 -0.000001 0.042074 68.984897 6.848296 2.243753 25.456959 -7.355615 0.000009 -1.128033 174.980963 0.675510 -0.000005 -0.000004 -1.084400 -6.463434 1.328406 0.513634 -0.000004 -0.000001 -0.121346 70.465170 -6.878284 -2.062643 25.477266 7.355619 -0.029989 
52.248196 -8.112934 85.544998 0.706403 -0.225742 0.329657 -2.036033 0.087126 -0.062328 -0.069137 0.190593 -0.129485 1.575939 0.188967 -0.131642 7.100911 1.830144 0.760081 7.584654 -0.901763 0.631512 -16.158305 -28.278715 -18.432053 61.577557 -49.869875 95.144986 0.000000 -0.000001 -0.000000 1.224065 4.002734 -0.490521 -0.000001 0.000000 -3.002154 -5.000144 -7.999960 -0.000007 -20.628305 29.866925 24.899554 61.169911 51.853676 -91.193599 0.000000 -0.000000 0.000003 3.166979 -7.356862 0.654436 0.000000 -0.000002 3.000008 -5.000128 8.000241 0.000024 -1.277097 -174.042482 1.248296 -179.999991 0.000005 -1.073004 174.718370 -3.188435 -0.518595 0.000003 -0.000001 0.041839 68.986529 6.846771 2.247870 25.456957 -7.355615 0.000008 -1.143664 174.980991 0.671740 -0.000005 -0.000004 -1.084170 -6.483601 1.336788 0.513807 -0.000004 0.000000 -0.121713 70.475299 -6.878057 -2.062475 25.477867 7.355619 -0.030903 
52.268497 -8.082862 85.554497 0.710662 -0.224286 0.332081 -2.036781 0.087040 -0.062583 -0.070636 0.190488 -0.129845 1.574439 0.188856 -0.132000 7.098085 1.823774 0.758523 7.587760 -0.895229 0.629832 -16.162318 -28.278723 -18.437879 61.580480 -49.866057 95.147964 0.000002 -0.000003 -0.000002 1.225211 4.003417 -0.490488 -0.000001 0.000001 -3.002150 -5.000145 -7.999960 -0.000004 -20.631059 29.866088 24.903503 61.171482 51.849342 -91.189166 0.000000 -0.000000 0.000005 3.166471 -7.352005 0.654413 -0.000000 -0.000003 3.000008 -5.000130 8.000238 0.000024 -1.283336 -174.044490 1.245323 -179.999991 0.000005 -1.073004 174.714805 -3.185424 -0.518517 0.000002 -0.000001 0.041657 68.986912 6.846300 2.249258 25.456962 -7.355616 0.000009 -1.151818 174.979010 0.669856 -0.000005 -0.000004 -1.084150 -6.491181 1.339888 0.513564 -0.000004 0.000000 -0.121661 70.478229 -6.877930 -2.062674 25.478173 7.355616 -0.031310 
52.256195 -8.087053 85.597710 0.711266 -0.221251 0.335012 -2.036852 0.086830 -0.062802 -0.070757 0.189967 -0.129935 1.574319 0.188335 -0.132086 7.096329 1.830291 0.756542 7.593091 -0.912904 0.629581 -16.168176 -28.280265 -18.446319 61.581942 -49.859742 95.148906 0.000001 -0.000003 0.000002 1.223176 4.003951 -0.490470 0.000000 0.000000 -3.002151 -5.000146 -7.999960 -0.000006 -20.630996 29.864169 24.903361 61.175265 51.842918 -91.189296 0.000000 0.000001 0.000003 3.157435 -7.350501 0.654415 -0.000000 -0.000003 3.000007 -5.000129 8.000239 0.000025 -1.280653 -174.048479 1.243361 -179.999991 0.000005 -1.073004 174.718479 -3.184449 -0.518221 0.000003 -0.000001 0.041524 68.986051 6.846956 2.247732 25.456959 -7.355617 0.000010 -1.152196 174.976005 0.669856 -0.000005 -0.000004 -1.084350 -6.485783 1.337299 0.512850 -0.000004 0.000001 -0.121151 70.473666 -6.877935 -2.062954 25.478076 7.355616 -0.031154 
